<?xml version="1.0" standalone="no"?>
<!DOCTYPE svg PUBLIC "-//W3C//DTD SVG 20010904//EN"
 "http://www.w3.org/TR/2001/REC-SVG-20010904/DTD/svg10.dtd">
<svg version="1.0" xmlns="http://www.w3.org/2000/svg"
 width="440.000000pt" height="440.000000pt" viewBox="0 0 440.000000 440.000000"
 preserveAspectRatio="xMidYMid meet">
<metadata>
Created by potrace 1.14, written by Peter Selinger 2001-2017
</metadata>
<g transform="translate(0.000000,440.000000) scale(0.100000,-0.100000)"
fill="#000000" stroke="none">
<path d="M2178 4046 c-1 -2 -51 -6 -110 -10 -58 -3 -112 -8 -120 -11 -7 -2
-31 -7 -53 -10 -286 -41 -633 -198 -885 -402 -91 -74 -230 -216 -290 -298 -24
-33 -46 -62 -49 -65 -11 -10 -51 -69 -51 -76 0 -4 -6 -15 -14 -23 -23 -26
-102 -181 -146 -288 -40 -94 -90 -281 -105 -388 -14 -98 -13 -407 1 -505 75
-512 317 -936 714 -1251 61 -48 185 -129 198 -129 6 0 12 -4 14 -8 6 -15 198
-102 303 -137 54 -19 191 -52 240 -59 22 -4 54 -9 70 -11 210 -35 549 -11 795
55 41 12 83 23 92 25 9 2 38 13 64 24 26 12 51 21 55 21 20 0 89 51 83 61 -4
7 -43 8 -118 4 -134 -9 -295 -10 -392 -2 -251 20 -514 110 -744 257 -30 19
-57 37 -60 40 -3 3 -32 25 -65 50 -76 57 -216 197 -276 275 -135 176 -253 413
-300 600 -22 88 -39 172 -44 215 -3 25 -7 59 -10 75 -6 40 -6 251 0 295 2 19
7 55 10 80 3 25 8 53 11 62 3 9 7 26 9 39 28 146 109 333 209 482 81 121 90
131 237 277 154 152 166 162 304 254 208 139 436 237 634 271 19 3 37 7 40 9
19 12 210 25 379 25 94 1 123 4 120 13 -5 13 -58 48 -80 52 -7 2 -21 6 -30 9
-10 4 -26 10 -35 14 -10 3 -27 8 -38 10 -11 2 -31 7 -45 12 -14 5 -43 13 -65
17 -22 4 -42 8 -45 9 -5 1 -98 16 -140 21 -14 2 -74 7 -135 10 -60 3 -115 7
-122 9 -6 2 -13 2 -15 1z"/>
<path d="M2697 3444 c-1 -1 -31 -5 -67 -8 -182 -17 -386 -82 -342 -110 4 -2
57 -8 118 -11 60 -3 116 -8 124 -10 8 -2 35 -7 60 -10 145 -19 347 -91 485
-173 110 -65 260 -193 325 -278 122 -157 188 -306 216 -484 12 -81 12 -266 0
-320 -4 -14 -9 -38 -11 -55 -6 -30 -21 -86 -32 -115 -3 -8 -7 -20 -8 -26 -2
-5 -12 -30 -24 -54 -11 -24 -21 -50 -21 -57 0 -7 -3 -13 -8 -13 -4 0 -13 -13
-20 -29 -16 -35 -74 -125 -84 -129 -5 -2 -8 -8 -8 -13 0 -37 -298 -309 -338
-309 -6 0 -12 -3 -14 -7 -9 -22 -181 -96 -273 -119 -102 -25 -143 -29 -343
-28 -186 1 -192 0 -176 -18 10 -10 25 -18 34 -18 9 0 20 -4 25 -9 10 -8 89
-30 130 -36 11 -2 40 -8 65 -13 79 -18 171 -25 320 -25 171 -1 239 4 246 15 3
5 9 6 13 4 12 -8 156 31 234 64 124 51 286 162 360 245 10 11 33 36 51 55 121
128 277 441 301 603 2 18 9 59 14 92 9 58 8 319 -2 360 -3 11 -13 54 -22 95
-10 41 -35 114 -56 162 -48 112 -95 192 -179 302 -41 54 -194 197 -261 243
-174 119 -398 206 -594 228 -55 7 -234 13 -238 9z"/>
</g>
</svg>
